<svg width="149" height="30" viewBox="0 0 149 30" fill="none" xmlns="http://www.w3.org/2000/svg">
<path d="M5.384 18.24C4.54133 18.24 3.78133 18.0933 3.104 17.8C2.432 17.5067 1.87733 17.088 1.44 16.544C1.008 15.9947 0.733333 15.344 0.616 14.592L2.616 14.288C2.78667 14.9707 3.136 15.4987 3.664 15.872C4.19733 16.2453 4.81067 16.432 5.504 16.432C5.91467 16.432 6.30133 16.368 6.664 16.24C7.02667 16.112 7.32 15.9253 7.544 15.68C7.77333 15.4347 7.888 15.1333 7.888 14.776C7.888 14.616 7.86133 14.4693 7.808 14.336C7.75467 14.1973 7.67467 14.0747 7.568 13.968C7.46667 13.8613 7.33333 13.7653 7.168 13.68C7.008 13.5893 6.82133 13.512 6.608 13.448L3.632 12.568C3.376 12.4933 3.09867 12.3947 2.8 12.272C2.50667 12.144 2.22667 11.9707 1.96 11.752C1.69867 11.528 1.48267 11.2453 1.312 10.904C1.14667 10.5573 1.064 10.1307 1.064 9.624C1.064 8.88267 1.25067 8.26133 1.624 7.76C2.00267 7.25333 2.50933 6.87467 3.144 6.624C3.784 6.37333 4.49333 6.25067 5.272 6.256C6.06133 6.26133 6.76533 6.39733 7.384 6.664C8.00267 6.92533 8.52 7.30667 8.936 7.808C9.352 8.30933 9.64533 8.91467 9.816 9.624L7.744 9.984C7.65867 9.57867 7.49333 9.23467 7.248 8.952C7.008 8.664 6.712 8.44533 6.36 8.296C6.01333 8.14667 5.64267 8.06667 5.248 8.056C4.864 8.05067 4.50667 8.10933 4.176 8.232C3.85067 8.34933 3.58667 8.52 3.384 8.744C3.18667 8.968 3.088 9.22933 3.088 9.528C3.088 9.81067 3.17333 10.0427 3.344 10.224C3.51467 10.4 3.72533 10.5413 3.976 10.648C4.232 10.7493 4.49067 10.8347 4.752 10.904L6.816 11.48C7.09867 11.5547 7.416 11.656 7.768 11.784C8.12 11.912 8.45867 12.0907 8.784 12.32C9.10933 12.5493 9.376 12.8507 9.584 13.224C9.79733 13.5973 9.904 14.072 9.904 14.648C9.904 15.2453 9.77867 15.7707 9.528 16.224C9.28267 16.672 8.94933 17.0453 8.528 17.344C8.10667 17.6427 7.624 17.8667 7.08 18.016C6.54133 18.1653 5.976 18.24 5.384 18.24ZM11.6356 18V6.48H19.0756V8.288H13.5636V11.128H18.1156V12.936H13.5636V16.192H19.0756V18H11.6356ZM20.995 18V6.48H28.435V8.288H22.923V11.128H27.475V12.936H22.923V16.192H28.435V18H20.995ZM38.4295 18.24C37.2775 18.24 36.2908 17.9893 35.4695 17.488C34.6482 16.9813 34.0162 16.2773 33.5735 15.376C33.1362 14.4747 32.9175 13.4293 32.9175 12.24C32.9175 11.0507 33.1362 10.0053 33.5735 9.104C34.0162 8.20267 34.6482 7.50133 35.4695 7C36.2908 6.49333 37.2775 6.24 38.4295 6.24C39.5815 6.24 40.5682 6.49333 41.3895 7C42.2162 7.50133 42.8482 8.20267 43.2855 9.104C43.7282 10.0053 43.9495 11.0507 43.9495 12.24C43.9495 13.4293 43.7282 14.4747 43.2855 15.376C42.8482 16.2773 42.2162 16.9813 41.3895 17.488C40.5682 17.9893 39.5815 18.24 38.4295 18.24ZM38.4295 16.424C39.2028 16.4293 39.8455 16.2587 40.3575 15.912C40.8748 15.5653 41.2615 15.0773 41.5175 14.448C41.7788 13.8187 41.9095 13.0827 41.9095 12.24C41.9095 11.3973 41.7788 10.6667 41.5175 10.048C41.2615 9.424 40.8748 8.93867 40.3575 8.592C39.8455 8.24533 39.2028 8.06667 38.4295 8.056C37.6562 8.05067 37.0135 8.22133 36.5015 8.568C35.9895 8.91467 35.6028 9.40267 35.3415 10.032C35.0855 10.6613 34.9575 11.3973 34.9575 12.24C34.9575 13.0827 35.0855 13.816 35.3415 14.44C35.5975 15.0587 35.9815 15.5413 36.4935 15.888C37.0108 16.2347 37.6562 16.4133 38.4295 16.424ZM45.5419 18V6.48H47.4939L52.8379 14.6V6.48H54.7899V18H52.8379L47.4939 9.88V18H45.5419ZM64.9814 18.24C64.2347 18.24 63.5334 18.1093 62.8774 17.848C62.2267 17.5813 61.6534 17.192 61.1574 16.68C60.6667 16.168 60.2827 15.5413 60.0054 14.8C59.728 14.0533 59.5894 13.2 59.5894 12.24C59.5894 10.9813 59.824 9.90667 60.2934 9.016C60.7627 8.12 61.4054 7.43467 62.2214 6.96C63.0374 6.48 63.9574 6.24 64.9814 6.24C66.4 6.24 67.5227 6.57067 68.3494 7.232C69.1814 7.888 69.744 8.81067 70.0374 10L68.0694 10.312C67.8507 9.62933 67.4934 9.08533 66.9974 8.68C66.5014 8.26933 65.8694 8.064 65.1014 8.064C64.328 8.05333 63.6854 8.22133 63.1734 8.568C62.6614 8.91467 62.2747 9.40267 62.0134 10.032C61.7574 10.6613 61.6294 11.3973 61.6294 12.24C61.6294 13.0827 61.7574 13.816 62.0134 14.44C62.2694 15.0587 62.6534 15.5413 63.1654 15.888C63.6827 16.2347 64.328 16.4133 65.1014 16.424C65.6827 16.4293 66.192 16.3253 66.6294 16.112C67.0667 15.8933 67.424 15.5653 67.7014 15.128C67.9787 14.6853 68.1654 14.1333 68.2614 13.472H66.2294V11.96H70.3094C70.32 12.0453 70.328 12.1707 70.3334 12.336C70.3387 12.5013 70.3414 12.6 70.3414 12.632C70.3414 13.72 70.1254 14.688 69.6934 15.536C69.2667 16.3787 68.6534 17.04 67.8534 17.52C67.0534 18 66.096 18.24 64.9814 18.24ZM72.1081 18V6.48H74.0361V18H72.1081ZM79.2005 18V8.288H75.4725V6.48H84.8565V8.288H81.1285V18H79.2005ZM86.1356 18V6.48H88.0636V11.328H93.5196V6.48H95.4396V18H93.5196V13.136H88.0636V18H86.1356ZM102.323 18.24C101.405 18.24 100.597 18.0533 99.8985 17.68C99.2052 17.3067 98.6612 16.7813 98.2665 16.104C97.8772 15.4267 97.6825 14.632 97.6825 13.72V6.496L99.6345 6.48V13.672C99.6345 14.104 99.7065 14.4907 99.8505 14.832C99.9998 15.1733 100.2 15.464 100.451 15.704C100.701 15.9387 100.989 16.1173 101.315 16.24C101.64 16.3627 101.976 16.424 102.323 16.424C102.68 16.424 103.019 16.3627 103.339 16.24C103.664 16.112 103.952 15.9307 104.203 15.696C104.453 15.456 104.651 15.1653 104.795 14.824C104.939 14.4827 105.01 14.0987 105.01 13.672V6.48H106.963V13.72C106.963 14.632 106.765 15.4267 106.371 16.104C105.981 16.7813 105.437 17.3067 104.739 17.68C104.045 18.0533 103.24 18.24 102.323 18.24ZM109.198 18V6.48H113.766C114.545 6.48 115.182 6.63733 115.678 6.952C116.179 7.26133 116.55 7.65867 116.79 8.144C117.035 8.62933 117.158 9.13067 117.158 9.648C117.158 10.2827 117.006 10.8213 116.702 11.264C116.403 11.7067 115.995 12.0053 115.478 12.16V11.76C116.203 11.9253 116.753 12.2693 117.126 12.792C117.505 13.3147 117.694 13.9093 117.694 14.576C117.694 15.2587 117.563 15.856 117.302 16.368C117.041 16.88 116.651 17.28 116.134 17.568C115.622 17.856 114.987 18 114.23 18H109.198ZM111.15 16.184H113.99C114.326 16.184 114.627 16.1173 114.894 15.984C115.161 15.8453 115.369 15.6533 115.518 15.408C115.673 15.1573 115.75 14.8613 115.75 14.52C115.75 14.2107 115.683 13.9333 115.55 13.688C115.417 13.4427 115.222 13.248 114.966 13.104C114.71 12.9547 114.403 12.88 114.046 12.88H111.15V16.184ZM111.15 11.08H113.742C114.019 11.08 114.267 11.0267 114.486 10.92C114.705 10.8133 114.878 10.656 115.006 10.448C115.134 10.24 115.198 9.984 115.198 9.68C115.198 9.28 115.07 8.94667 114.814 8.68C114.558 8.41333 114.201 8.28 113.742 8.28H111.15V11.08Z" fill="#D3E97A"/>
<path fill-rule="evenodd" clip-rule="evenodd" d="M136.028 2.16675C130.06 2.16675 125.223 7.00383 125.223 12.9719C125.223 17.7451 128.318 21.7957 132.612 23.2257C133.153 23.3232 133.348 22.9906 133.348 22.7046C133.348 22.4478 133.339 21.7675 133.336 20.8673C130.33 21.5194 129.695 19.4178 129.695 19.4178C129.205 18.1698 128.496 17.8372 128.496 17.8372C127.515 17.1666 128.571 17.1818 128.571 17.1818C129.656 17.2576 130.225 18.2954 130.225 18.2954C131.189 19.9464 132.755 19.4698 133.369 19.1935C133.467 18.4948 133.749 18.0181 134.057 17.7483C131.658 17.4764 129.136 16.5491 129.136 12.4075C129.136 11.2299 129.557 10.2636 130.245 9.50958C130.136 9.2355 129.762 8.13592 130.353 6.64958C130.353 6.64958 131.259 6.35817 133.323 7.75567C134.204 7.51589 135.114 7.3935 136.027 7.39167C136.941 7.39315 137.85 7.51554 138.731 7.75567C140.796 6.35708 141.702 6.64958 141.702 6.64958C142.292 8.13592 141.922 9.2355 141.809 9.50958C142.502 10.2636 142.918 11.2288 142.918 12.4075C142.918 16.5599 140.394 17.4721 137.987 17.7397C138.371 18.0733 138.718 18.732 138.718 19.7395C138.718 21.1847 138.705 22.3503 138.705 22.7046C138.705 22.9938 138.898 23.3297 139.449 23.2235C143.742 21.7913 146.833 17.744 146.833 12.9719C146.833 7.00383 141.996 2.16675 136.028 2.16675Z" fill="#D3E97A"/>
<line y1="29" x2="149" y2="29" stroke="#D3E97A" stroke-width="2"/>
</svg>
