<svg width="111" height="28" viewBox="0 0 111 28" fill="none" xmlns="http://www.w3.org/2000/svg">
<path d="M1.28 18V6.48H3.208V16.192H8.296V18H1.28ZM9.81125 18V6.48H11.7393V18H9.81125ZM16.7276 18L13.0956 6.48H15.0796L18.1196 16.128L21.1996 6.48H23.1836L19.5516 18H16.7276ZM24.3856 18V6.48H31.8256V8.288H26.3136V11.128H30.8656V12.936H26.3136V16.192H31.8256V18H24.3856ZM36.9481 18V6.48H40.6201C40.7161 6.48 40.9055 6.48267 41.1881 6.488C41.4761 6.49333 41.7535 6.512 42.0201 6.544C42.9321 6.66133 43.7028 6.98667 44.3321 7.52C44.9668 8.048 45.4468 8.72267 45.7721 9.544C46.0975 10.3653 46.2601 11.264 46.2601 12.24C46.2601 13.216 46.0975 14.1147 45.7721 14.936C45.4468 15.7573 44.9668 16.4347 44.3321 16.968C43.7028 17.496 42.9321 17.8187 42.0201 17.936C41.7588 17.968 41.4841 17.9867 41.1961 17.992C40.9081 17.9973 40.7161 18 40.6201 18H36.9481ZM38.9081 16.184H40.6201C40.7801 16.184 40.9828 16.1787 41.2281 16.168C41.4788 16.1573 41.7001 16.1333 41.8921 16.096C42.4361 15.9947 42.8788 15.752 43.2201 15.368C43.5615 14.984 43.8121 14.5173 43.9721 13.968C44.1375 13.4187 44.2201 12.8427 44.2201 12.24C44.2201 11.616 44.1375 11.0293 43.9721 10.48C43.8068 9.93067 43.5508 9.46933 43.2041 9.096C42.8628 8.72267 42.4255 8.48533 41.8921 8.384C41.7001 8.34133 41.4788 8.31733 41.2281 8.312C40.9828 8.30133 40.7801 8.296 40.6201 8.296H38.9081V16.184ZM48.1513 18V6.48H55.5913V8.288H50.0793V11.128H54.6313V12.936H50.0793V16.192H55.5913V18H48.1513ZM57.5106 18V6.48H59.2466L63.2306 14.64L67.2146 6.48H68.9506V18H67.1506V10.616L63.6146 18H62.8466L59.3186 10.616V18H57.5106ZM76.0701 18.24C74.9181 18.24 73.9315 17.9893 73.1101 17.488C72.2888 16.9813 71.6568 16.2773 71.2141 15.376C70.7768 14.4747 70.5581 13.4293 70.5581 12.24C70.5581 11.0507 70.7768 10.0053 71.2141 9.104C71.6568 8.20267 72.2888 7.50133 73.1101 7C73.9315 6.49333 74.9181 6.24 76.0701 6.24C77.2221 6.24 78.2088 6.49333 79.0301 7C79.8568 7.50133 80.4888 8.20267 80.9261 9.104C81.3688 10.0053 81.5901 11.0507 81.5901 12.24C81.5901 13.4293 81.3688 14.4747 80.9261 15.376C80.4888 16.2773 79.8568 16.9813 79.0301 17.488C78.2088 17.9893 77.2221 18.24 76.0701 18.24ZM76.0701 16.424C76.8435 16.4293 77.4861 16.2587 77.9981 15.912C78.5155 15.5653 78.9021 15.0773 79.1581 14.448C79.4195 13.8187 79.5501 13.0827 79.5501 12.24C79.5501 11.3973 79.4195 10.6667 79.1581 10.048C78.9021 9.424 78.5155 8.93867 77.9981 8.592C77.4861 8.24533 76.8435 8.06667 76.0701 8.056C75.2968 8.05067 74.6541 8.22133 74.1421 8.568C73.6301 8.91467 73.2435 9.40267 72.9821 10.032C72.7261 10.6613 72.5981 11.3973 72.5981 12.24C72.5981 13.0827 72.7261 13.816 72.9821 14.44C73.2381 15.0587 73.6221 15.5413 74.1341 15.888C74.6515 16.2347 75.2968 16.4133 76.0701 16.424Z" fill="#D3E97A"/>
<g clip-path="url(#clip0_7_105)">
<path d="M92.9897 19.2176L103.304 8.90369V16.3891L105.303 16.3891L105.303 5.48978L94.4039 5.48978L94.4039 7.48948L101.889 7.48948L91.5755 17.8033L92.9897 19.2176Z" fill="#D3E97A"/>
</g>
<line y1="27" x2="111" y2="27" stroke="#D3E97A" stroke-width="2"/>
<defs>
<clipPath id="clip0_7_105">
<rect width="24" height="24" fill="white" transform="translate(87)"/>
</clipPath>
</defs>
</svg>
