<svg width="129" height="28" viewBox="0 0 129 28" fill="none" xmlns="http://www.w3.org/2000/svg">
<path d="M1.12 18V6.48H2.856L6.84 14.64L10.824 6.48H12.56V18H10.76V10.616L7.224 18H6.456L2.928 10.616V18H1.12ZM19.6795 18.24C18.5275 18.24 17.5408 17.9893 16.7195 17.488C15.8982 16.9813 15.2662 16.2773 14.8235 15.376C14.3862 14.4747 14.1675 13.4293 14.1675 12.24C14.1675 11.0507 14.3862 10.0053 14.8235 9.104C15.2662 8.20267 15.8982 7.50133 16.7195 7C17.5408 6.49333 18.5275 6.24 19.6795 6.24C20.8315 6.24 21.8182 6.49333 22.6395 7C23.4662 7.50133 24.0982 8.20267 24.5355 9.104C24.9782 10.0053 25.1995 11.0507 25.1995 12.24C25.1995 13.4293 24.9782 14.4747 24.5355 15.376C24.0982 16.2773 23.4662 16.9813 22.6395 17.488C21.8182 17.9893 20.8315 18.24 19.6795 18.24ZM19.6795 16.424C20.4528 16.4293 21.0955 16.2587 21.6075 15.912C22.1248 15.5653 22.5115 15.0773 22.7675 14.448C23.0288 13.8187 23.1595 13.0827 23.1595 12.24C23.1595 11.3973 23.0288 10.6667 22.7675 10.048C22.5115 9.424 22.1248 8.93867 21.6075 8.592C21.0955 8.24533 20.4528 8.06667 19.6795 8.056C18.9062 8.05067 18.2635 8.22133 17.7515 8.568C17.2395 8.91467 16.8528 9.40267 16.5915 10.032C16.3355 10.6613 16.2075 11.3973 16.2075 12.24C16.2075 13.0827 16.3355 13.816 16.5915 14.44C16.8475 15.0587 17.2315 15.5413 17.7435 15.888C18.2608 16.2347 18.9062 16.4133 19.6795 16.424ZM26.7919 18V6.48H31.5519C31.6639 6.48 31.8079 6.48533 31.9839 6.496C32.1599 6.50133 32.3225 6.51733 32.4719 6.544C33.1385 6.64533 33.6879 6.86667 34.1199 7.208C34.5572 7.54933 34.8799 7.98133 35.0879 8.504C35.3012 9.02133 35.4079 9.59733 35.4079 10.232C35.4079 11.1707 35.1705 11.9787 34.6959 12.656C34.2212 13.328 33.4932 13.744 32.5119 13.904L31.6879 13.976H28.7199V18H26.7919ZM33.4079 18L31.1359 13.312L33.0959 12.88L35.5919 18H33.4079ZM28.7199 12.176H31.4719C31.5785 12.176 31.6985 12.1707 31.8319 12.16C31.9652 12.1493 32.0879 12.128 32.1999 12.096C32.5199 12.016 32.7705 11.8747 32.9519 11.672C33.1385 11.4693 33.2692 11.24 33.3439 10.984C33.4239 10.728 33.4639 10.4773 33.4639 10.232C33.4639 9.98667 33.4239 9.736 33.3439 9.48C33.2692 9.21867 33.1385 8.98667 32.9519 8.784C32.7705 8.58133 32.5199 8.44 32.1999 8.36C32.0879 8.328 31.9652 8.30933 31.8319 8.304C31.6985 8.29333 31.5785 8.288 31.4719 8.288H28.7199V12.176ZM37.3544 18V6.48H44.7944V8.288H39.2824V11.128H43.8344V12.936H39.2824V16.192H44.7944V18H37.3544ZM49.1169 18L52.7489 6.48H55.5729L59.2049 18H57.2209L53.9249 7.664H54.3569L51.1009 18H49.1169ZM51.1409 15.504V13.704H57.1889V15.504H51.1409ZM60.6513 18V6.48H65.2193C65.9979 6.48 66.6353 6.63733 67.1313 6.952C67.6326 7.26133 68.0033 7.65867 68.2433 8.144C68.4886 8.62933 68.6113 9.13067 68.6113 9.648C68.6113 10.2827 68.4593 10.8213 68.1553 11.264C67.8566 11.7067 67.4486 12.0053 66.9313 12.16V11.76C67.6566 11.9253 68.2059 12.2693 68.5793 12.792C68.9579 13.3147 69.1473 13.9093 69.1473 14.576C69.1473 15.2587 69.0166 15.856 68.7552 16.368C68.4939 16.88 68.1046 17.28 67.5873 17.568C67.0753 17.856 66.4406 18 65.6833 18H60.6513ZM62.6033 16.184H65.4433C65.7793 16.184 66.0806 16.1173 66.3473 15.984C66.6139 15.8453 66.8219 15.6533 66.9713 15.408C67.1259 15.1573 67.2033 14.8613 67.2033 14.52C67.2033 14.2107 67.1366 13.9333 67.0033 13.688C66.8699 13.4427 66.6753 13.248 66.4193 13.104C66.1633 12.9547 65.8566 12.88 65.4993 12.88H62.6033V16.184ZM62.6033 11.08H65.1953C65.4726 11.08 65.7206 11.0267 65.9393 10.92C66.1579 10.8133 66.3313 10.656 66.4593 10.448C66.5873 10.24 66.6513 9.984 66.6513 9.68C66.6513 9.28 66.5233 8.94667 66.2673 8.68C66.0113 8.41333 65.6539 8.28 65.1953 8.28H62.6033V11.08ZM75.617 18.24C74.465 18.24 73.4783 17.9893 72.657 17.488C71.8357 16.9813 71.2037 16.2773 70.761 15.376C70.3237 14.4747 70.105 13.4293 70.105 12.24C70.105 11.0507 70.3237 10.0053 70.761 9.104C71.2037 8.20267 71.8357 7.50133 72.657 7C73.4783 6.49333 74.465 6.24 75.617 6.24C76.769 6.24 77.7557 6.49333 78.577 7C79.4037 7.50133 80.0357 8.20267 80.473 9.104C80.9157 10.0053 81.137 11.0507 81.137 12.24C81.137 13.4293 80.9157 14.4747 80.473 15.376C80.0357 16.2773 79.4037 16.9813 78.577 17.488C77.7557 17.9893 76.769 18.24 75.617 18.24ZM75.617 16.424C76.3903 16.4293 77.033 16.2587 77.545 15.912C78.0623 15.5653 78.449 15.0773 78.705 14.448C78.9663 13.8187 79.097 13.0827 79.097 12.24C79.097 11.3973 78.9663 10.6667 78.705 10.048C78.449 9.424 78.0623 8.93867 77.545 8.592C77.033 8.24533 76.3903 8.06667 75.617 8.056C74.8437 8.05067 74.201 8.22133 73.689 8.568C73.177 8.91467 72.7903 9.40267 72.529 10.032C72.273 10.6613 72.145 11.3973 72.145 12.24C72.145 13.0827 72.273 13.816 72.529 14.44C72.785 15.0587 73.169 15.5413 73.681 15.888C74.1983 16.2347 74.8437 16.4133 75.617 16.424ZM87.3694 18.24C86.452 18.24 85.644 18.0533 84.9454 17.68C84.252 17.3067 83.708 16.7813 83.3134 16.104C82.924 15.4267 82.7294 14.632 82.7294 13.72V6.496L84.6814 6.48V13.672C84.6814 14.104 84.7534 14.4907 84.8974 14.832C85.0467 15.1733 85.2467 15.464 85.4974 15.704C85.748 15.9387 86.036 16.1173 86.3614 16.24C86.6867 16.3627 87.0227 16.424 87.3694 16.424C87.7267 16.424 88.0654 16.3627 88.3854 16.24C88.7107 16.112 88.9987 15.9307 89.2494 15.696C89.5 15.456 89.6974 15.1653 89.8414 14.824C89.9854 14.4827 90.0574 14.0987 90.0574 13.672V6.48H92.0094V13.72C92.0094 14.632 91.812 15.4267 91.4174 16.104C91.028 16.7813 90.484 17.3067 89.7854 17.68C89.092 18.0533 88.2867 18.24 87.3694 18.24ZM97.013 18V8.288H93.285V6.48H102.669V8.288H98.941V18H97.013ZM106.667 18V6.48H108.403L112.387 14.64L116.371 6.48H118.107V18H116.307V10.616L112.771 18H112.003L108.475 10.616V18H106.667ZM120.354 18V6.48H127.794V8.288H122.282V11.128H126.834V12.936H122.282V16.192H127.794V18H120.354Z" fill="#D3E97A"/>
<line y1="27" x2="129" y2="27" stroke="#D3E97A" stroke-width="2"/>
</svg>
